<?xml version="1.0" standalone="no"?>
<!DOCTYPE svg PUBLIC "-//W3C//DTD SVG 20010904//EN"
 "http://www.w3.org/TR/2001/REC-SVG-20010904/DTD/svg10.dtd">
<svg version="1.0" xmlns="http://www.w3.org/2000/svg"
 width="225.000000pt" height="225.000000pt" viewBox="0 0 225.000000 225.000000"
 preserveAspectRatio="xMidYMid meet">
<metadata>
Created by potrace 1.11, written by Peter Selinger 2001-2013
</metadata>
<g transform="translate(0.000000,225.000000) scale(0.100000,-0.100000)"
fill="#000000" stroke="none">
<path d="M895 2223 c-219 -46 -398 -144 -561 -307 -145 -144 -242 -312 -296
-509 -20 -72 -23 -106 -23 -282 0 -224 11 -284 80 -445 75 -175 240 -376 394
-480 201 -135 385 -190 636 -190 251 0 435 55 636 190 154 104 319 305 394
480 69 161 80 221 80 445 0 176 -3 210 -23 282 -54 197 -151 365 -296 509
-166 165 -345 262 -568 308 -100 21 -355 20 -453 -1z m379 -325 c8 -13 8 -23
0 -35 -10 -16 -31 -18 -162 -21 -143 -2 -152 -1 -162 18 -8 14 -8 26 0 40 10
19 19 20 162 18 131 -3 152 -5 162 -20z m378 -115 c14 -13 18 -31 18 -89 0
-72 -13 -104 -43 -104 -9 0 -12 -132 -12 -537 0 -296 -3 -550 -7 -565 -11 -38
-54 -86 -100 -109 -37 -19 -56 -20 -397 -17 l-357 3 -41 27 c-25 16 -49 44
-62 71 -21 44 -21 50 -19 586 l3 541 -22 0 c-34 0 -53 37 -53 105 0 39 6 69
16 83 l15 22 521 0 c471 0 523 -2 540 -17z m-1032 -1525 l9 -23 0 23 c1 20 6
22 51 22 36 0 50 -4 50 -14 0 -8 -6 -17 -12 -19 -10 -4 -9 -8 2 -16 13 -10 13
-12 0 -22 -11 -8 -12 -12 -2 -16 24 -10 11 -23 -23 -23 l-35 0 -1 53 -1 52
-17 -50 c-24 -69 -44 -69 -63 0 l-15 55 24 0 c15 0 27 -8 33 -22z m210 8 c0
-7 -9 -16 -20 -19 -21 -5 -28 -41 -10 -52 6 -3 10 1 10 11 0 11 6 15 19 11 15
-4 20 2 26 29 5 27 11 34 29 34 20 0 25 -7 30 -37 4 -21 9 -45 12 -54 7 -25
-141 -27 -168 -3 -22 21 -23 52 -1 76 19 21 73 25 73 4z m210 -1 c12 -14 15
-14 30 0 22 20 49 19 72 -2 17 -15 18 -15 18 0 0 10 8 17 20 17 17 0 20 -7 20
-39 0 -22 5 -43 10 -46 6 -4 10 12 10 39 l0 46 54 0 c36 0 60 -5 70 -16 15
-14 16 -14 16 0 0 12 10 16 35 16 35 0 50 -22 23 -33 -10 -4 -9 -8 2 -16 13
-10 13 -12 0 -22 -11 -8 -12 -12 -2 -16 24 -10 11 -23 -23 -23 -34 0 -35 1
-35 38 0 26 -3 33 -9 22 -6 -8 -7 -18 -4 -22 14 -23 -21 -37 -93 -37 -64 0
-75 3 -85 21 l-11 20 -14 -21 c-20 -28 -48 -27 -71 3 -14 17 -22 20 -30 12
-31 -29 -44 -36 -63 -36 -18 0 -20 6 -20 55 l0 55 34 0 c18 0 39 -7 46 -15z
m450 -30 c0 -33 4 -45 15 -45 11 0 15 12 15 45 0 41 2 45 25 45 23 0 25 -4 25
-45 0 -25 5 -45 10 -45 6 0 10 -4 10 -9 0 -6 -34 -10 -75 -10 l-75 0 0 55 c0
51 1 54 25 54 23 0 25 -4 25 -45z m180 34 c0 -7 -8 -18 -17 -25 -17 -13 -17
-13 0 -14 21 0 23 -20 2 -20 -8 0 -15 -4 -15 -10 0 -5 7 -10 15 -10 8 0 15 -4
15 -10 0 -5 -16 -10 -35 -10 l-35 0 0 55 0 55 35 0 c20 0 35 -5 35 -11z"/>
<path d="M782 1454 l-22 -15 0 -433 c0 -464 -1 -459 52 -471 21 -5 33 -1 52
19 l26 25 0 421 0 421 -25 24 c-28 29 -51 31 -83 9z"/>
<path d="M1082 1447 l-22 -24 2 -428 3 -428 26 -19 c28 -21 57 -18 84 8 13 13
15 76 15 445 0 416 -1 430 -20 449 -27 27 -62 25 -88 -3z"/>
<path d="M1365 1445 l-25 -24 0 -421 0 -421 26 -25 c19 -20 31 -24 52 -19 53
12 52 7 52 471 l0 433 -22 15 c-32 22 -55 20 -83 -9z"/>
<path d="M1012 230 c0 -14 2 -19 5 -12 2 6 2 18 0 25 -3 6 -5 1 -5 -13z"/>
<path d="M1100 225 c0 -14 5 -25 10 -25 6 0 10 11 10 25 0 14 -4 25 -10 25 -5
0 -10 -11 -10 -25z"/>
</g>
</svg>
